<svg width="32" height="32" viewBox="0 0 32 32" fill="none" xmlns="http://www.w3.org/2000/svg">
  <!-- Dark background -->
  <rect width="32" height="32" fill="#0a0a0a"/>
  
  <!-- Shield outline -->
  <path d="M16 2L8 6V14C8 20.5 12.5 26.5 16 28C19.5 26.5 24 20.5 24 14V6L16 2Z" stroke="#00ff41" stroke-width="2" fill="none"/>
  
  <!-- Inner shield -->
  <path d="M16 4L10 7V13C10 18.5 13.5 23.5 16 25C18.5 23.5 22 18.5 22 13V7L16 4Z" fill="#00ff41" fill-opacity="0.2"/>
  
  <!-- Lock symbol -->
  <rect x="13" y="14" width="6" height="6" rx="1" fill="#00ff41"/>
  <path d="M14 14V12C14 10.9 14.9 10 16 10C17.1 10 18 10.9 18 12V14" stroke="#00ff41" stroke-width="1.5" fill="none"/>
  
  <!-- Cyber grid pattern -->
  <defs>
    <pattern id="grid" width="4" height="4" patternUnits="userSpaceOnUse">
      <path d="M 4 0 L 0 0 0 4" fill="none" stroke="#00ff41" stroke-width="0.3" opacity="0.3"/>
    </pattern>
  </defs>
  <rect width="32" height="32" fill="url(#grid)"/>
</svg>